<?xml version="1.0" encoding="UTF-8" standalone="no"?>
<!-- Created with Inkscape (http://www.inkscape.org/) -->

<svg
   width="400"
   height="64"
   viewBox="0 0 400000000 64000000"
   version="1.1"
   id="svg1"
   inkscape:version="1.4.2 (1:1.4.2+202505120737+ebf0e940d0)"
   sodipodi:docname="logo.svg"
   xmlns:inkscape="http://www.inkscape.org/namespaces/inkscape"
   xmlns:sodipodi="http://sodipodi.sourceforge.net/DTD/sodipodi-0.dtd"
   xmlns="http://www.w3.org/2000/svg"
   xmlns:svg="http://www.w3.org/2000/svg">
  <sodipodi:namedview
     id="namedview1"
     pagecolor="#ffffff"
     bordercolor="#000000"
     borderopacity="0.25"
     inkscape:showpageshadow="2"
     inkscape:pageopacity="0.0"
     inkscape:pagecheckerboard="0"
     inkscape:deskcolor="#d1d1d1"
     inkscape:document-units="px"
     inkscape:zoom="2.0560856"
     inkscape:cx="174.60363"
     inkscape:cy="75.385966"
     inkscape:window-width="1920"
     inkscape:window-height="1018"
     inkscape:window-x="0"
     inkscape:window-y="0"
     inkscape:window-maximized="1"
     inkscape:current-layer="layer1" />
  <defs
     id="defs1" />
  <g
     inkscape:label="Calque 1"
     inkscape:groupmode="layer"
     id="layer1">
    <path
       style="font-weight:bold;font-size:5.6e+07px;font-family:Trueno;-inkscape-font-specification:'Trueno Bold';fill:#002395;stroke-width:3e+06;stroke-linecap:round;stroke-linejoin:round;stroke-miterlimit:12;paint-order:stroke fill markers"
       d="m 13016024,40974908 h 9968000 V 25742908 h 16240000 v 15232000 h 9968000 V 1774908 H 39224024 V 17902908 H 22984024 V 1774908 h -9968000 z"
       id="path1" />
    <path
       style="font-weight:bold;font-size:5.6e+07px;font-family:Trueno;-inkscape-font-specification:'Trueno Bold';fill:#ffffff;stroke-width:3e+06;stroke-linecap:round;stroke-linejoin:round;stroke-miterlimit:12;paint-order:stroke fill markers"
       d="M 57031984,40974908 H 88335984 V 33134908 H 66999984 V 25238908 H 85703984 V 17398908 H 66999984 V 9614908 H 87719984 V 1774908 H 57031984 Z"
       id="path2" />
    <path
       style="font-weight:bold;font-size:5.6e+07px;font-family:Trueno;-inkscape-font-specification:'Trueno Bold';fill:#ed2939;stroke-width:3e+06;stroke-linecap:round;stroke-linejoin:round;stroke-miterlimit:12;paint-order:stroke fill markers"
       d="m 91135976,40974908 h 11592004 l 8456000,-12488000 8456000,12488000 h 11928000 L 117511980,20478908 130447980,1774908 H 118743980 L 111183980,13198908 103623980,1774908 H 92031976 l 13104004,19152000 z"
       id="path3" />
    <path
       style="font-weight:bold;font-size:5.6e+07px;font-family:Trueno;-inkscape-font-specification:'Trueno Bold';fill:#a8a8a8;stroke-width:3e+06;stroke-linecap:round;stroke-linejoin:round;stroke-miterlimit:12;paint-order:stroke fill markers"
       d="m 135879930,40974908 h 9968000 V 1774908 h -9968000 z m 17808050,0 h 9352000 V 16838908 l 18032000,24136000 h 8792000 V 1774908 h -9296000 V 25966908 L 162479980,1774908 h -8792000 z M 194175930,9782908 h 11704000 v 31192000 h 9968000 V 9782908 h 11816000 V 1718908 h -33488000 z"
       id="path4" />
    <path
       style="font-weight:bold;font-size:5.6e+07px;font-family:Trueno;-inkscape-font-specification:'Trueno Bold';fill:#7cfc00;stroke-width:3e+06;stroke-linecap:round;stroke-linejoin:round;stroke-miterlimit:12;paint-order:stroke fill markers"
       d="m 229343940,21374908 c 0,11424000 9016000,20048000 20944000,20048000 5488000,0 12096000,-2128000 16296000,-5096000 V 21038908 h -8624000 v 10136000 c -2352000,1176000 -4928000,1904000 -6944000,1904000 -6496000,0 -11480000,-5040000 -11480000,-11704000 0,-6552000 4928000,-11592000 11368000,-11592000 3640000,0 7616000,1624000 10472000,4256000 l 5600000,-6776000 c -4032000,-3584000 -10192000,-5824000 -16016000,-5824000 -12376000,0 -21616000,8568000 -21616000,19936000 z m 44184000,19600000 h 31304000 v -7840000 h -21336000 v -7896000 h 18704000 V 17398908 H 283495940 V 9614908 h 20720000 V 1774908 h -30688000 z m 35167990,-19656000 c 0,11480000 9072000,20104000 21168000,20104000 12152000,0 21224000,-8680000 21224000,-20104000 0,-11368000 -9072000,-19880000 -21224000,-19880000 -12096000,0 -21168000,8456000 -21168000,19880000 z m 10192000,56000 c 0,-6608000 5040000,-11592000 11088000,-11592000 6048000,0 10864000,4984000 10864000,11592000 0,6608000 -4816000,11704000 -10864000,11704000 -5992000,0 -11088000,-5096000 -11088000,-11704000 z"
       id="path5" />
    <path
       style="font-weight:bold;font-size:5.6e+07px;font-family:Trueno;-inkscape-font-specification:'Trueno Bold';fill:#ffd700;stroke-width:3e+06;stroke-linecap:round;stroke-linejoin:round;stroke-miterlimit:12;paint-order:stroke fill markers"
       d="m 353383960,35038908 c 4648000,3808000 11368000,6272000 17920000,6272000 8736000,0 15680000,-4144000 15680000,-11984000 0,-14168000 -20720000,-10304000 -20720000,-17080000 0,-1904000 1736000,-2856000 4312000,-2856000 3192000,0 8400000,1680000 12544000,4088000 l 3752000,-7784000 c -4032000,-2632000 -9800000,-4368000 -15456000,-4368000 -9408000,0 -15624000,4592000 -15624000,11816000 0,13888000 20720000,9744000 20720000,16688000 0,2240000 -1960000,3416000 -5096000,3416000 -4088000,0 -10136000,-2352000 -14168000,-5880000 z"
       id="path6" />
    <path
       style="font-style:italic;font-size:1.6e+07px;font-family:Trueno;-inkscape-font-specification:'Trueno Italic';fill:#ffffff;stroke-width:3e+06;stroke-linecap:round;stroke-linejoin:round;stroke-miterlimit:12;paint-order:stroke fill markers"
       d="m 72272040,59489008 h 1968000 l 1440000,-2528000 h 5648000 l 704000,2528000 h 2016000 L 80768040,48289008 h -1936000 z m 4352000,-4208000 2832000,-4976000 1392000,4976000 z m 8800014,4208000 h 1840000 l 656000,-4528000 c 320000,-1328000 1344000,-2304000 2752000,-2320000 1280000,0 1936000,784000 1744000,2064000 l -688000,4784000 h 1840000 l 768000,-5296000 c 288000,-2032000 -720000,-3280000 -2704000,-3280000 -1440000,0 -2592000,512000 -3376000,1696000 l 240000,-1632000 h -1840000 z m 10272002,-2560000 c -224000,1504000 768000,2640000 2608000,2640000 1232000,0 2256004,-368000 2976004,-1120000 l -144000,1040000 h 1808000 l 784000,-5584000 c 256000,-1872000 -816000,-2992000 -3008000,-2992000 -1616004,0 -2528004,368000 -3808004,1072000 l 560000,1280000 c 928000,-576000 1824000,-864000 2640004,-864000 1344000,0 1936000,640000 1776000,1712000 l -32000,256000 h -2576004 c -2048000,16000 -3360000,1008000 -3584000,2560000 z m 1744000,-80000 c 112000,-816000 720000,-1136000 1920000,-1136000 h 2304004 l -112000,784000 c -224000,928000 -1344000,1616000 -2656004,1616000 -1024000,0 -1568000,-496000 -1456000,-1264000 z m 8048004,2640000 h 1840000 l 1712000,-11872000 h -1840000 z m 2896000,2464000 c 528000,496000 1088000,720000 1856000,720000 1280000,0 2336000,-672000 3056000,-2016000 l 5280000,-9680000 h -1840000 l -3296000,6448000 -1616000,-6448000 h -1904000 l 2304000,8384000 -384000,640000 c -384000,640000 -864000,944000 -1424000,944000 -384000,0 -688000,-128000 -1040000,-416000 z m 9296020,-3584000 c 736000,768000 2000000,1184000 3248000,1184000 1712000,0 3376000,-784000 3632000,-2528000 464000,-3088000 -4192000,-2240000 -3968000,-3808000 80000,-608000 656000,-848000 1376000,-848000 752000,0 1648000,288000 2336000,752000 l 880000,-1360000 c -688000,-544000 -1792000,-864000 -2864000,-864000 -1632000,0 -3232000,736000 -3488000,2464000 -464000,3072000 4176000,2096000 3920000,3840000 -96000,640000 -752000,912000 -1536000,912000 -928000,0 -2048000,-400000 -2688000,-1056000 z m 8191990,-3120000 c -368000,2560000 1104000,4304000 3728000,4304000 1472000,0 2768000,-528000 3728000,-1440000 l -816000,-1040000 c -720000,640000 -1616000,992000 -2544000,992000 -1344000,0 -2240000,-816000 -2336000,-2128000 h 6432000 c 672000,-3072000 -272000,-5024000 -3264000,-5024000 -2528000,16000 -4560000,1760000 -4928000,4336000 z m 1920000,-656000 c 400000,-1360000 1472000,-2208000 2816000,-2208000 1392000,0 2176000,832000 2048000,2208000 z m 7679990,4896000 h 1840000 l 640000,-4448000 c 352000,-1456000 1584000,-2464000 3280000,-2368000 l 256000,-1760000 c -1344000,0 -2464000,608000 -3200000,1760000 l 256000,-1696000 h -1840000 z m 5327990,1312000 h 944000 l 1120000,-1376000 c 208000,-256000 352000,-528000 400000,-848000 96000,-640000 -320000,-1024000 -832000,-1024000 -576000,0 -1056000,432000 -1136000,1024000 -48000,336000 64000,640000 320000,832000 z m 8528000,-6928000 c -464000,3216000 1712000,5696000 4992000,5696000 1584000,0 3312000,-720000 4608000,-1840000 l -944000,-1248000 c -960000,816000 -2192000,1328000 -3312000,1328000 -2240000,0 -3744000,-1744000 -3424000,-3952000 320000,-2208000 2320000,-3936000 4560000,-3936000 1136000,0 2224000,544000 2912000,1424000 l 1312000,-1376000 c -928000,-1072000 -2432000,-1728000 -4016000,-1728000 -3312000,0 -6224000,2448000 -6688000,5632000 z m 10816010,3056000 c -224000,1504000 768000,2640000 2608000,2640000 1232000,0 2256000,-368000 2976000,-1120000 l -144000,1040000 h 1808000 l 784000,-5584000 c 256000,-1872000 -816000,-2992000 -3008000,-2992000 -1616000,0 -2528000,368000 -3808000,1072000 l 560000,1280000 c 928000,-576000 1824000,-864000 2640000,-864000 1344000,0 1936000,640000 1776000,1712000 l -32000,256000 h -2576000 c -2048000,16000 -3360000,1008000 -3584000,2560000 z m 1744000,-80000 c 112000,-816000 720000,-1136000 1920000,-1136000 h 2304000 l -112000,784000 c -224000,928000 -1344000,1616000 -2656000,1616000 -1024000,0 -1568000,-496000 -1456000,-1264000 z m 7968000,2640000 h 1840000 l 640000,-4448000 c 352000,-1456000 1584000,-2464000 3280000,-2368000 l 256000,-1760000 c -1344000,0 -2464000,608000 -3200000,1760000 l 256000,-1696000 h -1840000 z m 6415990,-6816000 h 1200000 l -624000,4416000 c -256000,1744000 736000,2480000 2016000,2480000 720000,0 1456000,-224000 2192000,-624000 l -256000,-1408000 c -528000,240000 -960000,368000 -1344000,368000 -576000,0 -864000,-272000 -736000,-1152000 l 576000,-4080000 h 2512000 l 208000,-1376000 h -2512000 l 336000,-2336000 h -1824000 l -336000,2336000 h -1200000 z m 6111980,2560000 c -368000,2560000 1184000,4320000 3824000,4320000 2624000,0 4688000,-1760000 5056000,-4320000 368000,-2576000 -1184000,-4320000 -3808000,-4320000 -2640000,0 -4704000,1744000 -5072000,4320000 z m 1840000,16000 c 240000,-1632000 1472000,-2752000 3008000,-2752000 1520000,0 2432000,1120000 2192000,2752000 -240000,1648000 -1472000,2768000 -2992000,2768000 -1536000,0 -2448000,-1120000 -2208000,-2768000 z m 7792000,6272000 c 944000,704000 2048000,1120000 3376000,1120000 2672000,0 4624000,-1536000 4976000,-3984000 l 1120000,-7680000 h -1824000 l -208000,1376000 c -464000,-928000 -1360000,-1456000 -2672000,-1440000 -2256000,16000 -4000000,1648000 -4352000,4048000 -352000,2448000 944000,4112000 3248000,4112000 1280000,0 2320000,-512000 3024000,-1440000 l -160000,1072000 c -208000,1472000 -1408000,2416000 -3024000,2416000 -1040000,0 -1808000,-336000 -2528000,-928000 z m 2128000,-6512000 c 240000,-1520000 1408000,-2608000 2864000,-2608000 1440000,0 2288000,1072000 2064000,2608000 -224000,1536000 -1376000,2624000 -2816000,2624000 -1472000,0 -2320000,-1088000 -2112000,-2624000 z m 8671990,4480000 h 1840000 l 640000,-4448000 c 352000,-1456000 1584000,-2464000 3280000,-2368000 l 256000,-1760000 c -1344000,0 -2464000,608000 -3200000,1760000 l 256000,-1696000 h -1840000 z m 5631990,-2560000 c -224000,1504000 768000,2640000 2608000,2640000 1232000,0 2256000,-368000 2976000,-1120000 l -144000,1040000 h 1808000 l 784000,-5584000 c 256000,-1872000 -816000,-2992000 -3008000,-2992000 -1616000,0 -2528000,368000 -3808000,1072000 l 560000,1280000 c 928000,-576000 1824000,-864000 2640000,-864000 1344000,0 1936000,640000 1776000,1712000 l -32000,256000 h -2576000 c -2048000,16000 -3360000,1008000 -3584000,2560000 z m 1744000,-80000 c 112000,-816000 720000,-1136000 1920000,-1136000 h 2304000 l -112000,784000 c -224000,928000 -1344000,1616000 -2656000,1616000 -1024000,0 -1568000,-496000 -1456000,-1264000 z m 7600000,5744000 h 1840000 l 656000,-4576000 c 480000,992000 1424000,1536000 2784000,1536000 2432000,0 4288000,-1744000 4656000,-4288000 368000,-2592000 -1024000,-4352000 -3440000,-4352000 -1328000,0 -2432000,544000 -3200000,1536000 l 224000,-1472000 h -1840000 z m 2912000,-7392000 c 224000,-1600000 1456000,-2752000 2976000,-2752000 1520000,0 2432000,1168000 2208000,2752000 -240000,1632000 -1472000,2784000 -2992000,2784000 -1520000,0 -2432000,-1136000 -2192000,-2784000 z m 8416010,4288000 h 1840000 l 608000,-4192000 c 224000,-1504000 1296000,-2640000 2816000,-2656000 1280000,0 1936000,784000 1744000,2064000 l -688000,4784000 h 1840000 l 768000,-5296000 c 288000,-2032000 -720000,-3280000 -2704000,-3280000 -1456000,0 -2608000,528000 -3392000,1728000 l 720000,-5024000 h -1840000 z m 10624000,0 h 1824000 l 1232000,-8512000 h -1824000 z m 1424000,-10944000 c -96000,640000 304000,1104000 912000,1104000 608000,0 1136000,-464000 1232000,-1104000 96000,-656000 -304000,-1120000 -912000,-1120000 -608000,0 -1136000,464000 -1232000,1120000 z m 2928020,6704000 c -368000,2560000 1104000,4304000 3728000,4304000 1472000,0 2768000,-528000 3728000,-1440000 l -816000,-1040000 c -720000,640000 -1616000,992000 -2544000,992000 -1344000,0 -2240000,-816000 -2336000,-2128000 h 6432000 c 672000,-3072000 -272000,-5024000 -3264000,-5024000 -2528000,16000 -4560000,1760000 -4928000,4336000 z m 1920000,-656000 c 400000,-1360000 1472000,-2208000 2816000,-2208000 1392000,0 2176000,832000 2048000,2208000 z m 7679980,4896000 h 1840000 l 640000,-4448000 c 352000,-1456000 1584000,-2464000 3280000,-2368000 l 256000,-1760000 c -1344000,0 -2464000,608000 -3200000,1760000 l 256000,-1696000 h -1840000 z m 5327990,1312000 h 944000 l 1120000,-1376000 c 208000,-256000 352000,-528000 400000,-848000 96000,-640000 -320000,-1024000 -832000,-1024000 -576000,0 -1056000,432000 -1136000,1024000 -48000,336000 64000,640000 320000,832000 z m 8640000,-1312000 h 1888000 l 480000,-3376000 h 2656000 c 176000,0 368000,0 528000,-16000 l 1552000,3392000 h 2144000 l -1968000,-3744000 c 1568000,-576000 2576000,-1840000 2832000,-3632000 352000,-2432000 -1088000,-3824000 -3952000,-3824000 h -4544000 z m 2624000,-5072000 640000,-4432000 h 2656000 c 1728000,0 2608000,704000 2400000,2176000 -224000,1520000 -1312000,2256000 -3040000,2256000 z m 8640000,832000 c -368000,2560000 1104000,4304000 3728000,4304000 1472000,0 2768000,-528000 3728000,-1440000 l -816000,-1040000 c -720000,640000 -1616000,992000 -2544000,992000 -1344000,0 -2240000,-816000 -2336000,-2128000 h 6432000 c 672000,-3072000 -272000,-5024000 -3264000,-5024000 -2528000,16000 -4560000,1760000 -4928000,4336000 z m 1920000,-656000 c 400000,-1360000 1472000,-2208000 2816000,-2208000 1392000,0 2176000,832000 2048000,2208000 z m 2016000,-4832000 h 1632000 l 2176000,-1568000 -1776000,-800000 z m 5231980,1216000 2064000,8512000 h 1904000 l 4496000,-8512000 h -1840000 l -3312000,6704000 -1392000,-6704000 z m 7999990,4272000 c -368000,2560000 1104000,4304000 3728000,4304000 1472000,0 2768000,-528000 3728000,-1440000 l -816000,-1040000 c -720000,640000 -1616000,992000 -2544000,992000 -1344000,0 -2240000,-816000 -2336000,-2128000 h 6432000 c 672000,-3072000 -272000,-5024000 -3264000,-5024000 -2528000,16000 -4560000,1760000 -4928000,4336000 z m 1920000,-656000 c 400000,-1360000 1472000,-2208000 2816000,-2208000 1392000,0 2176000,832000 2048000,2208000 z m 2016000,-4832000 h 1632000 l 2176000,-1568000 -1776000,-800000 z m 5743980,9728000 h 1840000 l 1712000,-11872000 h -1840000 z m 4448000,-4240000 c -368000,2560000 1104000,4304000 3728000,4304000 1472000,0 2768000,-528000 3728000,-1440000 l -816000,-1040000 c -720000,640000 -1616000,992000 -2544000,992000 -1344000,0 -2240000,-816000 -2336000,-2128000 h 6432000 c 672000,-3072000 -272000,-5024000 -3264000,-5024000 -2528000,16000 -4560000,1760000 -4928000,4336000 z m 1920000,-656000 c 400000,-1360000 1472000,-2208000 2816000,-2208000 1392000,0 2176000,832000 2048000,2208000 z m 7680000,4896000 h 1840000 l 640000,-4448000 c 352000,-1456000 1584000,-2464000 3280000,-2368000 l 256000,-1760000 c -1344000,0 -2464000,608000 -3200000,1760000 l 256000,-1696000 h -1840000 z m 5807980,-928000 c -96000,624000 288000,1072000 864000,1072000 576000,0 1056000,-448000 1152000,-1072000 80000,-608000 -272000,-1040000 -848000,-1040000 -576000,0 -1088000,432000 -1168000,1040000 z"
       id="text88"
       aria-label="Analyser, Cartographier, Révéler." />
  </g>
</svg>
